<svg width="519" height="148" viewBox="0 0 519 148" fill="black" style="color: black" xmlns="http://www.w3.org/2000/svg">
    <path
        d="M2.32002 139.678C2.16002 139.678 1.97336 139.651 1.76002 139.598C1.54669 139.545 1.36002 139.451 1.20002 139.318C1.04002 139.211 0.906691 139.091 0.800024 138.958C0.720024 138.851 0.640024 138.691 0.560024 138.478L0.520024 138.358L0.400024 137.518C0.400024 136.585 0.480024 135.678 0.640024 134.798L0.760024 133.798C1.74669 128.198 3.26669 121.811 5.32002 114.638C8.04002 104.958 11.0267 95.3715 14.28 85.8781C17.7467 69.4781 20.6267 53.9581 22.92 39.3181C24.3867 29.6915 25.24 21.9448 25.48 16.0781C25.5067 15.1715 25.52 14.0915 25.52 12.8381C25.4934 11.7981 25.4 10.7448 25.24 9.67813C25.2134 9.62479 25.1867 9.55812 25.16 9.47812C25.1334 9.37146 25.1067 9.31812 25.08 9.31812C24.92 9.05146 24.84 8.75812 24.84 8.43812C24.84 7.90479 25.0934 7.43812 25.6 7.03813C25.8667 6.87813 26.16 6.79813 26.48 6.79813C27.0134 6.79813 27.48 7.05146 27.88 7.55813C28.12 7.9848 28.2934 8.43813 28.4 8.91813V9.03812C28.4534 9.30479 28.48 9.55812 28.48 9.79813L28.52 10.1581L28.56 12.2781C28.5334 13.6381 28.4534 14.9715 28.32 16.2781C27.8134 21.4248 27.16 26.6381 26.36 31.9181C24.6534 43.8115 22.56 56.4515 20.08 69.8381C21.92 64.9848 23.84 60.1715 25.84 55.3981C29.8134 45.6915 34.4267 36.2915 39.68 27.1981C42.3467 22.6381 45.4667 18.3848 49.04 14.4381C50.8534 12.4381 52.9467 10.7315 55.32 9.31812C57.5867 7.98479 60.0934 7.31813 62.84 7.31813H63.48C66.52 7.50479 69.1467 8.58479 71.36 10.5581C73.4667 12.5581 75.04 14.8648 76.08 17.4781C77.92 21.8781 78.88 27.1581 78.96 33.3181V34.7581C78.96 39.6381 78.5067 44.4515 77.6 49.1981C77.1467 51.8115 76.5467 54.3981 75.8 56.9581C75.1334 59.5181 74.2934 62.0515 73.28 64.5581C71.04 70.1315 68.3734 74.7715 65.28 78.4781C64.4267 79.5181 63.48 80.4915 62.44 81.3981C57.8 85.5315 52.6267 87.6381 46.92 87.7181C45.8 87.7181 44.6667 87.6381 43.52 87.4781C38.7467 86.7315 33.8667 84.6381 28.88 81.1981C26.6934 79.6781 24.6 78.0915 22.6 76.4381C21.72 75.7181 21.0934 75.2248 20.72 74.9581L20.24 74.5581C20.32 75.1181 20.44 75.6915 20.6 76.2781C21.3467 78.7048 22.28 81.0915 23.4 83.4381C25.6667 88.0781 28.3067 92.5048 31.32 96.7181C34.3334 100.931 37.6534 104.878 41.28 108.558C44.9067 112.238 48.84 115.545 53.08 118.478C61.6667 124.398 71.0667 128.131 81.28 129.678C81.7334 129.758 82.0934 129.958 82.36 130.278C82.6267 130.598 82.76 130.971 82.76 131.398C82.7334 131.931 82.5467 132.345 82.2 132.638C81.88 132.958 81.5067 133.118 81.08 133.118L80.76 133.078C70.3867 131.185 60.68 126.998 51.64 120.518C43.0267 114.145 35.72 106.585 29.72 97.8381C26.68 93.5181 24.0267 88.9715 21.76 84.1981C20.7467 82.0915 19.8667 79.8915 19.12 77.5981L18.04 80.8781C16.2267 90.2381 14.32 99.5981 12.32 108.958C10.5334 117.091 8.62669 124.718 6.60002 131.838C6.20002 133.091 5.76002 134.371 5.28002 135.678C4.82669 136.985 4.37336 137.971 3.92002 138.638C3.73336 138.931 3.45336 139.198 3.08002 139.438L3.04002 139.478C2.88002 139.558 2.64002 139.625 2.32002 139.678ZM46.16 85.7181C50.3467 85.7181 54.2267 84.4248 57.8 81.8381C59.96 80.2648 61.7467 78.5581 63.16 76.7181C65.9067 73.1981 68.28 68.7581 70.28 63.3981C71.0267 61.4248 71.8134 58.9848 72.64 56.0781C74.72 48.3448 75.76 40.7715 75.76 33.3581C75.76 30.8248 75.5867 28.3048 75.24 25.7981C74.4134 19.8515 72.52 15.4248 69.56 12.5181C67.5867 10.6781 65.2134 9.75813 62.44 9.75813C61.32 9.75813 60.4267 9.83813 59.76 9.99812C56.6667 10.7981 53.5867 12.7581 50.52 15.8781C46.9734 19.5581 43.8534 23.6381 41.16 28.1181C38.6267 32.1981 36.12 36.7448 33.64 41.7581C29.1334 50.9581 24.8534 61.3048 20.8 72.7981L21.8 73.4781C21.9067 73.5848 22.2934 73.8915 22.96 74.3981C25.44 76.4781 27.7467 78.2515 29.88 79.7181C34.7067 83.0248 39.3467 84.9715 43.8 85.5581C44.6 85.6648 45.3867 85.7181 46.16 85.7181Z"
        fill="currentColor"/>
    <path
        d="M67.3656 101.318H67.2057C66.8857 101.318 66.5256 101.198 66.1256 100.958C65.5656 100.505 65.2723 99.8915 65.2457 99.1181L65.2057 98.8781C65.2057 98.4248 65.259 97.9981 65.3656 97.5981L65.4056 97.3181C65.9656 95.1048 67.1257 92.6781 68.8857 90.0381C69.899 88.5448 71.1123 87.1981 72.5257 85.9981C73.219 85.3581 74.0856 84.8515 75.1256 84.4781C75.499 84.3448 75.9256 84.2781 76.4056 84.2781L77.0056 84.3181C77.7523 84.5048 78.299 84.8915 78.6456 85.4781C78.779 85.6381 78.8456 85.8248 78.8456 86.0381L79.3656 85.1981L79.9657 84.3981C79.9923 84.3181 80.0456 84.2248 80.1256 84.1181C80.2323 84.0115 80.299 83.9448 80.3256 83.9181C80.379 83.8915 80.4323 83.8648 80.4856 83.8381C80.5656 83.7848 80.7256 83.7448 80.9656 83.7181C81.2323 83.7181 81.4723 83.8515 81.6856 84.1181C81.7923 84.2781 81.8456 84.4781 81.8456 84.7181C81.819 84.7448 81.7923 84.8115 81.7656 84.9181C81.7656 85.0248 81.7523 85.1048 81.7256 85.1581L80.4056 88.4381C79.1256 91.7715 78.3656 94.1315 78.1256 95.5181C78.019 96.0515 77.9656 96.5448 77.9656 96.9981C77.9656 97.6381 78.0457 98.0381 78.2057 98.1981C78.579 98.6248 79.2056 98.8381 80.0856 98.8381L80.8857 98.7981C82.4323 98.5581 83.9523 98.0648 85.4456 97.3181C86.9656 96.5448 88.4323 95.7181 89.8456 94.8381C91.8456 93.5581 93.579 92.3315 95.0456 91.1581C95.3656 90.9181 95.6856 90.6781 96.0056 90.4381C96.3523 90.1715 96.8057 89.7848 97.3657 89.2781C97.659 89.0648 97.8323 88.9181 97.8857 88.8381C97.939 88.7315 98.0323 88.6781 98.1656 88.6781C98.219 88.6781 98.2723 88.7048 98.3257 88.7581C98.379 88.8115 98.4056 88.8648 98.4056 88.9181C98.4056 88.9981 98.339 89.1048 98.2057 89.2381C98.099 89.3448 97.9923 89.4648 97.8857 89.5981L96.9656 90.4781C96.5656 90.8515 95.7523 91.5581 94.5257 92.5981C89.3257 96.9448 84.8857 99.6115 81.2057 100.598C80.699 100.731 80.1657 100.798 79.6057 100.798C78.459 100.798 77.4856 100.438 76.6856 99.7181C76.179 99.1581 75.899 98.5981 75.8456 98.0381C75.7656 97.6915 75.7256 97.3581 75.7256 97.0381C75.7256 95.8115 76.0323 94.2915 76.6456 92.4781L76.7656 92.0781L75.0456 94.5981C73.099 97.4515 71.3123 99.4248 69.6856 100.518C69.5523 100.625 69.3923 100.718 69.2057 100.798L69.0056 100.878C68.499 101.171 67.9523 101.318 67.3656 101.318ZM67.5657 99.1981L68.0856 99.0781L68.4856 98.9181C69.099 98.7048 69.8056 98.2248 70.6056 97.4781C71.779 96.3581 72.859 95.1181 73.8456 93.7581C75.3923 91.5181 76.8723 89.2248 78.2857 86.8781C78.1257 86.9581 77.9656 86.9981 77.8056 86.9981C77.619 86.9981 77.3923 86.9048 77.1256 86.7181C76.9923 86.6381 76.8323 86.5981 76.6456 86.5981C76.619 86.5981 76.5523 86.6115 76.4456 86.6381C76.3656 86.6648 76.2323 86.7315 76.0456 86.8381C75.219 87.3181 74.139 88.3181 72.8056 89.8381L72.3256 90.4781C71.3123 91.7581 70.539 92.8648 70.0056 93.7981C69.019 95.2648 68.299 96.6648 67.8456 97.9981C67.659 98.4248 67.5657 98.8248 67.5657 99.1981Z"
        fill="currentColor"/>
    <path
        d="M99.1531 111.438C97.5798 111.438 96.3531 110.691 95.4731 109.198C94.8598 107.998 94.5531 106.505 94.5531 104.718C94.5531 103.758 94.5931 102.811 94.6731 101.878C95.0465 98.1181 95.6731 94.4515 96.5531 90.8781C97.3531 87.2515 98.2998 83.6781 99.3932 80.1581C101.553 73.1181 103.886 66.1448 106.393 59.2381C109.3 51.2915 112.02 44.4515 114.553 38.7181C115.433 36.6381 116.26 34.9448 117.033 33.6381C117.14 33.4248 117.273 33.1981 117.433 32.9581C117.62 32.7181 117.78 32.5581 117.913 32.4781C118.073 32.3981 118.153 32.3581 118.153 32.3581C118.18 32.3581 118.22 32.3448 118.273 32.3181C118.353 32.2648 118.513 32.2381 118.753 32.2381C119.153 32.2381 119.5 32.4248 119.793 32.7981C119.926 32.9581 120.006 33.1048 120.033 33.2381C120.06 33.3448 120.073 33.4248 120.073 33.4781C120.1 33.5048 120.113 33.5448 120.113 33.5981C120.113 34.0515 120.086 34.4915 120.033 34.9181C119.82 36.1181 119.58 37.1715 119.313 38.0781C118.406 41.4648 117.406 44.8248 116.313 48.1581C115.46 50.8515 114.22 54.5048 112.593 59.1181C109.686 67.1181 106.926 73.9315 104.313 79.5581C102.926 82.5448 101.646 84.9715 100.473 86.8381C98.5798 93.4248 97.3798 98.5181 96.8731 102.118C96.7398 103.185 96.6598 104.265 96.6331 105.358C96.6331 106.531 96.8198 107.505 97.1931 108.278C97.6198 109.211 98.3131 109.678 99.2731 109.678C100.18 109.651 101.073 109.411 101.953 108.958C105.553 107.145 110.393 103.078 116.473 96.7581L120.273 92.7581C122.806 90.0648 124.113 88.7181 124.193 88.7181C124.3 88.7448 124.366 88.8248 124.393 88.9581L124.353 89.0381L117.073 97.3181C112.353 102.625 108.366 106.465 105.113 108.838C103.22 110.251 101.46 111.105 99.8331 111.398C99.6198 111.425 99.3931 111.438 99.1531 111.438ZM102.113 81.3181C103.713 77.8248 105.393 73.6648 107.153 68.8381C110.566 59.4781 113.406 50.7315 115.673 42.5981C110.633 55.1581 106.14 67.9581 102.193 80.9981L102.113 81.3181Z"
        fill="currentColor"/>
    <path
        d="M107.289 147.358C106.995 147.358 106.782 147.238 106.649 146.998C106.622 146.971 106.609 146.945 106.609 146.918C106.582 146.891 106.569 146.865 106.569 146.838C106.542 146.811 106.529 146.771 106.529 146.718C106.502 146.691 106.489 146.638 106.489 146.558C106.462 146.505 106.449 146.331 106.449 146.038C106.449 145.371 106.569 144.505 106.809 143.438C107.022 142.398 107.249 141.358 107.489 140.318C109.409 132.958 111.955 125.025 115.129 116.518C115.742 114.918 116.622 112.718 117.769 109.918L118.049 109.158C119.062 105.478 120.395 100.011 122.049 92.7581L122.529 90.5981C122.955 88.7581 123.342 86.9048 123.689 85.0381L123.929 83.6381C123.955 83.3981 123.982 83.1581 124.009 82.9181C124.062 82.6781 124.102 82.4381 124.129 82.1981C124.155 81.9581 124.169 81.7181 124.169 81.4781C124.195 81.4248 124.209 81.3581 124.209 81.2781C124.155 81.1181 124.129 80.9581 124.129 80.7981C124.129 80.3181 124.342 79.9181 124.769 79.5981C125.035 79.4115 125.329 79.3181 125.649 79.3181C126.129 79.3181 126.542 79.5315 126.889 79.9581C126.969 80.0648 127.022 80.1715 127.049 80.2781C127.102 80.3581 127.129 80.4248 127.129 80.4781C127.129 80.5048 127.129 80.5448 127.129 80.5981C127.155 80.6515 127.169 80.7315 127.169 80.8381C127.195 80.9181 127.209 81.0115 127.209 81.1181C127.209 81.7581 127.155 82.2515 127.049 82.5981C126.862 83.7981 126.582 85.1981 126.209 86.7981C125.702 88.9848 125.169 91.1715 124.609 93.3581L123.649 96.9981C125.435 93.5048 127.315 90.6915 129.289 88.5581C129.982 87.7315 130.862 87.0381 131.929 86.4781C132.169 86.3181 132.449 86.1981 132.769 86.1181C133.382 85.9315 133.809 85.8381 134.049 85.8381C134.795 85.8381 135.395 86.0515 135.849 86.4781C136.169 86.8248 136.355 87.1715 136.409 87.5181C136.489 87.8648 136.529 88.3048 136.529 88.8381C136.529 89.3448 136.475 89.8248 136.369 90.2781C135.862 92.4381 134.955 94.7581 133.649 97.2381C139.835 93.7981 146.702 90.9581 154.249 88.7181C154.302 88.7181 154.342 88.7315 154.369 88.7581C154.422 88.7848 154.462 88.8381 154.489 88.9181C154.489 88.9715 154.475 89.0248 154.449 89.0781C154.422 89.1048 154.395 89.1315 154.369 89.1581C145.969 92.1448 138.649 95.6115 132.409 99.5581C130.755 102.465 129.075 104.958 127.369 107.038C126.595 107.918 125.982 108.505 125.529 108.798C125.449 108.878 125.369 108.931 125.289 108.958C125.075 109.065 124.902 109.118 124.769 109.118C124.662 109.145 124.555 109.158 124.449 109.158C124.049 109.158 123.755 109.011 123.569 108.718C123.409 108.425 123.315 108.198 123.289 108.038C123.262 107.878 123.249 107.758 123.249 107.678L123.329 106.958C123.382 106.371 123.609 105.731 124.009 105.038C125.369 102.905 127.595 100.891 130.689 98.9981L130.889 98.6381C131.182 98.1315 131.715 97.0915 132.489 95.5181C133.529 93.4115 134.235 91.5448 134.609 89.9181C134.742 89.4115 134.809 88.9581 134.809 88.5581C134.809 88.1048 134.742 87.8115 134.609 87.6781L134.369 87.5581C133.675 87.5581 133.102 87.6915 132.649 87.9581C131.822 88.3581 131.062 88.9181 130.369 89.6381C127.729 92.3048 125.022 96.4515 122.249 102.078L121.329 105.438C119.142 113.465 116.822 121.465 114.369 129.438C112.582 135.251 111.209 139.425 110.249 141.958C109.795 143.211 109.302 144.478 108.769 145.758L108.369 146.518C108.342 146.545 108.315 146.598 108.289 146.678C108.235 146.758 108.182 146.825 108.129 146.878C108.075 146.931 108.035 146.985 108.009 147.038C107.955 147.091 107.915 147.118 107.889 147.118C107.862 147.145 107.822 147.185 107.769 147.238C107.609 147.318 107.449 147.358 107.289 147.358ZM108.209 143.358L109.089 140.878C111.009 135.011 113.289 127.158 115.929 117.318C112.942 125.558 110.555 133.331 108.769 140.638C108.555 141.545 108.369 142.451 108.209 143.358ZM124.889 107.238C125.315 106.865 125.715 106.438 126.089 105.958C127.075 104.758 127.995 103.478 128.849 102.118C127.249 103.398 126.102 104.638 125.409 105.838C125.089 106.371 124.915 106.838 124.889 107.238Z"
        fill="currentColor"/>
    <path
        d="M152.244 103.238C152.031 103.238 151.817 103.185 151.604 103.078C151.391 102.971 151.244 102.851 151.164 102.718C151.137 102.691 151.111 102.638 151.084 102.558C151.031 102.505 151.004 102.451 151.004 102.398C151.004 102.371 150.991 102.345 150.964 102.318C150.937 102.291 150.924 102.238 150.924 102.158C150.897 102.105 150.884 102.065 150.884 102.038L150.844 101.358C150.844 101.118 150.897 100.585 151.004 99.7581C151.084 98.9315 151.284 97.7048 151.604 96.0781C152.351 92.2115 153.191 88.3715 154.124 84.5581C155.964 76.9581 158.084 69.4115 160.484 61.9181C164.457 49.5448 168.444 39.7848 172.444 32.6381L172.804 31.9581C173.044 31.4781 173.284 31.1315 173.524 30.9181L173.684 30.7981C173.844 30.6915 174.031 30.6381 174.244 30.6381C174.511 30.6381 174.764 30.7715 175.004 31.0381C175.084 31.1448 175.137 31.2515 175.164 31.3581C175.191 31.4381 175.204 31.5715 175.204 31.7581C175.204 31.9448 175.191 32.0648 175.164 32.1181C175.164 32.1448 175.164 32.1848 175.164 32.2381C175.057 32.7715 174.924 33.2648 174.764 33.7181C173.777 36.8915 172.737 39.9981 171.644 43.0381L167.124 55.9581L156.204 86.4381C155.404 89.7981 154.697 93.1715 154.084 96.5581C154.031 96.6915 154.004 96.8648 154.004 97.0781L154.444 96.3181C155.564 94.6648 156.831 93.0915 158.244 91.5981C159.284 90.5048 160.431 89.5048 161.684 88.5981C161.897 88.4648 162.097 88.3181 162.284 88.1581L162.444 88.0781C162.631 87.9448 162.871 87.8248 163.164 87.7181C163.217 87.7181 163.271 87.7048 163.324 87.6781C163.404 87.6515 163.577 87.6381 163.844 87.6381C164.057 87.6381 164.244 87.6915 164.404 87.7981C164.911 88.0915 165.164 88.6381 165.164 89.4381C165.164 89.8915 165.151 90.2648 165.124 90.5581L165.084 90.9181L164.644 93.7981C164.511 94.6248 164.431 95.7048 164.404 97.0381C164.404 97.8381 164.551 98.5581 164.844 99.1981C165.031 99.5448 165.297 99.7981 165.644 99.9581C165.991 100.091 166.377 100.158 166.804 100.158C167.684 100.051 168.551 99.7981 169.404 99.3981C173.244 97.4248 177.857 93.9048 183.244 88.8381L183.364 88.7581L183.524 88.9181L183.444 89.0381C180.697 91.8115 177.791 94.4381 174.724 96.9181C173.231 98.1448 171.591 99.2515 169.804 100.238C168.764 100.851 167.657 101.171 166.484 101.198C165.257 101.198 164.377 100.731 163.844 99.7981C163.337 98.7581 163.084 97.7315 163.084 96.7181V96.6781C163.084 95.6915 163.164 94.3581 163.324 92.6781C163.457 91.3448 163.524 90.3981 163.524 89.8381V89.5181C163.444 89.5448 163.364 89.5981 163.284 89.6781C163.231 89.7315 163.164 89.7981 163.084 89.8781C163.004 89.9315 162.897 90.0115 162.764 90.1181C162.657 90.1981 162.551 90.2915 162.444 90.3981C161.804 90.9048 160.924 91.7981 159.804 93.0781C158.284 94.8915 156.911 96.8915 155.684 99.0781L154.324 101.438C154.217 101.571 154.111 101.731 154.004 101.918C153.924 102.078 153.777 102.265 153.564 102.478L153.524 102.558C153.391 102.718 153.231 102.865 153.044 102.998L152.724 103.158C152.564 103.211 152.404 103.238 152.244 103.238ZM158.964 75.2781L170.204 41.8781C167.351 48.6515 164.831 55.5581 162.644 62.5981C161.337 66.8115 160.111 71.0381 158.964 75.2781Z"
        fill="currentColor"/>
    <path
        d="M209.493 140.838C205.307 140.838 202.173 139.758 200.093 137.598C199.24 136.718 198.587 135.745 198.133 134.678C197.467 132.945 197.133 131.211 197.133 129.478C197.133 127.105 197.573 124.611 198.453 121.998C199.813 118.051 201.6 114.371 203.813 110.958C208.24 104.078 213.427 97.9048 219.373 92.4381C225.347 86.9715 231.867 82.1581 238.933 77.9981C249.067 72.1315 259.827 67.8648 271.213 65.1981C273.08 59.4115 274.493 53.3981 275.453 47.1581C276.067 43.2381 276.373 39.2115 276.373 35.0781C276.373 31.1581 275.867 27.3715 274.853 23.7181C273.707 19.6648 271.747 16.4648 268.973 14.1181C266.413 12.0648 263.573 11.0381 260.453 11.0381C259.787 11.0381 259.12 11.0781 258.453 11.1581C255.067 11.5848 251.467 12.9581 247.653 15.2781C240.933 19.5181 235.4 25.0515 231.053 31.8781C228.893 35.2115 227.107 38.7181 225.693 42.3981C223.24 48.8248 222.013 55.3181 222.013 61.8781C222.013 67.0248 222.747 72.0915 224.213 77.0781C224.267 77.2381 224.293 77.4115 224.293 77.5981C224.293 78.3715 223.853 78.9448 222.973 79.3181C222.787 79.3715 222.6 79.3981 222.413 79.3981C221.64 79.3981 221.08 78.9715 220.733 78.1181C220.707 78.0915 220.693 78.0515 220.693 77.9981C219.627 73.3848 219.093 68.7315 219.093 64.0381C219.093 60.4381 219.427 56.8781 220.093 53.3581C220.813 49.3048 221.96 45.3715 223.533 41.5581C225.107 37.7448 227.013 34.1315 229.253 30.7181C231.52 27.2781 234.093 24.0915 236.973 21.1581C239.853 18.2248 243.053 15.6648 246.573 13.4781C248.36 12.4115 250.213 11.4915 252.133 10.7181C254.08 9.91813 256.107 9.37146 258.213 9.07812C258.96 8.97146 259.707 8.91813 260.453 8.91813C261.867 8.91813 263.253 9.11812 264.613 9.51813C266.72 10.1315 268.613 11.1181 270.293 12.4781C273.467 15.0915 275.693 18.6248 276.973 23.0781C278.093 27.1048 278.68 31.1848 278.733 35.3181C278.733 39.6915 278.467 43.7715 277.933 47.5581C277.187 53.0515 275.973 58.7181 274.293 64.5581C277.787 63.8381 281.307 63.2781 284.853 62.8781C285.28 62.8781 285.613 62.9848 285.853 63.1981C286.093 63.4115 286.24 63.6915 286.293 64.0381C286.293 64.4381 286.187 64.7581 285.973 64.9981C285.76 65.2381 285.48 65.3848 285.133 65.4381H285.053C281.24 65.6781 277.44 66.1181 273.653 66.7581C272.027 72.1448 270.107 77.4381 267.893 82.6381C264.747 90.1315 261.027 97.3448 256.733 104.278C252.493 111.265 247.533 117.745 241.853 123.718C239.027 126.705 235.947 129.425 232.613 131.878C229.307 134.385 225.707 136.465 221.813 138.118C217.413 139.931 213.307 140.838 209.493 140.838ZM209.453 137.638C210.893 137.585 212.76 137.305 215.053 136.798C216.92 136.318 218.747 135.705 220.533 134.958C224.107 133.438 227.453 131.491 230.573 129.118C233.72 126.771 236.653 124.171 239.373 121.318C244.867 115.558 249.72 109.305 253.933 102.558C258.2 95.8115 261.933 88.7715 265.133 81.4381C267.187 76.8248 268.987 72.1315 270.533 67.3581C259.707 69.5181 249.373 73.4115 239.533 79.0381C232.36 83.1448 225.92 87.8648 220.213 93.1981C217.253 95.9181 214.493 98.8248 211.933 101.918C206.253 108.745 202.427 115.638 200.453 122.598C199.893 124.625 199.6 126.651 199.573 128.678C199.573 130.411 199.907 132.038 200.573 133.558C201.96 136.278 204.667 137.638 208.693 137.638H209.453Z"
        fill="currentColor"/>
    <path
        d="M273.104 101.518L272.864 101.478C272.331 101.398 271.891 101.171 271.544 100.798C271.224 100.425 271.064 99.9848 271.064 99.4781C271.064 99.1315 271.197 98.6781 271.464 98.1181C272.024 96.8915 272.691 96.2248 273.464 96.1181C273.891 96.1181 274.251 96.2115 274.544 96.3981C274.997 96.6915 275.224 97.3048 275.224 98.2381C275.224 98.7448 275.184 99.1848 275.104 99.5581V99.7181C275.051 100.251 274.811 100.691 274.384 101.038C273.984 101.358 273.557 101.518 273.104 101.518Z"
        fill="currentColor"/>
    <path
        d="M325.218 139.598C321.244 139.598 318.298 138.478 316.378 136.238C315.471 135.145 314.858 133.931 314.538 132.598C314.298 131.745 314.178 130.891 314.178 130.038C314.178 128.385 314.564 126.651 315.338 124.838C317.711 119.771 322.751 114.531 330.458 109.118C337.604 104.105 345.898 99.3181 355.338 94.7581C362.964 90.9181 373.204 86.4515 386.058 81.3581C384.191 80.1581 382.151 79.2115 379.938 78.5181C375.458 77.1581 370.858 76.1315 366.138 75.4381C358.751 74.3448 349.284 73.3181 337.738 72.3581C330.778 71.7181 326.031 71.2515 323.498 70.9581C318.724 70.5048 313.964 69.7581 309.218 68.7181C306.818 68.2115 304.458 67.4381 302.138 66.3981C300.964 65.8648 299.844 65.1048 298.778 64.1181C298.244 63.6115 297.791 62.9981 297.418 62.2781C297.151 61.6381 296.911 60.9448 296.698 60.1981C296.511 59.4515 296.418 58.6915 296.418 57.9181C296.418 57.3048 296.471 56.7048 296.578 56.1181C296.791 54.7581 297.191 53.4915 297.778 52.3181C300.338 47.1448 305.484 41.8781 313.218 36.5181C317.191 33.7181 321.271 31.1581 325.458 28.8381C336.844 22.5981 348.884 17.2381 361.578 12.7581C366.298 11.1048 372.071 9.46479 378.898 7.83813C388.204 5.51812 397.578 3.57146 407.018 1.99813C411.738 1.19813 416.511 0.598124 421.338 0.198128C422.324 0.118127 423.431 0.078125 424.658 0.078125C426.151 0.078125 427.551 0.198128 428.858 0.438129C430.618 0.758125 431.671 1.63813 432.018 3.07813L432.058 3.47813C432.058 3.95812 431.978 4.37146 431.818 4.71812C431.471 5.57146 431.071 6.25146 430.618 6.75813C430.164 7.26479 429.698 7.73146 429.218 8.15812V8.19813C428.871 8.49146 428.484 8.63813 428.058 8.63813C427.604 8.63813 427.204 8.46479 426.858 8.11813C426.538 7.77146 426.378 7.38479 426.378 6.95812C426.378 6.47813 426.591 6.0248 427.018 5.59813C427.471 5.27813 427.884 4.93146 428.258 4.55813C428.631 4.1848 428.871 3.87813 428.978 3.63813L429.058 3.51813C428.818 3.33146 428.524 3.19813 428.178 3.11813C426.924 2.77146 425.271 2.59813 423.218 2.59813H421.458C416.764 2.83813 412.071 3.37146 407.378 4.19812C398.018 5.79812 388.711 7.75812 379.458 10.0781C374.844 11.2248 370.271 12.4915 365.738 13.8781C364.618 14.2248 363.511 14.5981 362.418 14.9981L361.018 15.5181C358.618 16.4248 355.778 17.5715 352.498 18.9581C338.151 24.9848 325.671 31.7048 315.058 39.1181C311.191 41.8381 307.684 44.8781 304.538 48.2381C302.991 49.9181 301.711 51.7315 300.698 53.6781C299.951 55.1715 299.578 56.6515 299.578 58.1181C299.578 59.1581 299.778 60.1181 300.178 60.9981C300.711 62.0648 301.791 62.9981 303.418 63.7981C305.418 64.7581 307.564 65.5315 309.858 66.1181C314.391 67.2381 319.031 68.0915 323.778 68.6781C329.404 69.4248 335.924 70.1315 343.338 70.7981C351.071 71.4381 358.778 72.3048 366.458 73.3981C371.231 74.0381 375.938 75.0781 380.578 76.5181C382.924 77.2115 385.178 78.2381 387.338 79.5981C387.738 79.8381 388.111 80.1181 388.458 80.4381C392.804 78.8115 395.124 77.9981 395.418 77.9981C395.684 77.9981 395.924 78.0781 396.138 78.2381C396.484 78.4781 396.658 78.8115 396.658 79.2381C396.658 79.5048 396.578 79.7448 396.418 79.9581C396.284 80.1715 396.084 80.3181 395.818 80.3981L395.738 80.4381C393.818 80.9181 391.924 81.4515 390.058 82.0381L390.138 82.1581C391.044 83.3048 391.551 84.6515 391.658 86.1981C391.658 87.0515 391.631 87.7048 391.578 88.1581C391.311 90.0781 390.818 91.9048 390.098 93.6381C389.164 95.9315 388.004 98.0915 386.618 100.118C383.871 104.171 380.751 107.891 377.258 111.278C370.324 118.051 362.711 123.918 354.418 128.878C343.991 135.171 334.991 138.705 327.418 139.478C326.671 139.558 325.938 139.598 325.218 139.598ZM429.098 3.59813C429.098 3.57146 429.084 3.55812 429.058 3.55812L429.098 3.59813ZM325.018 136.998C325.711 136.998 326.418 136.958 327.138 136.878C331.058 136.425 335.498 135.131 340.458 132.998C348.724 129.425 356.804 124.625 364.698 118.598C373.124 112.305 379.764 105.705 384.618 98.7981C385.924 96.8781 387.031 94.8648 387.938 92.7581C388.711 90.9448 389.164 89.3315 389.298 87.9181C389.351 87.6248 389.378 87.3448 389.378 87.0781L389.418 86.6781C389.418 85.5048 389.084 84.4648 388.418 83.5581L388.218 83.3181C388.084 83.1315 387.938 82.9581 387.778 82.7981C381.831 84.7181 375.538 87.1315 368.898 90.0381C360.151 93.8515 351.671 98.1181 343.458 102.838C333.564 108.571 326.111 114.305 321.098 120.038C319.578 121.798 318.364 123.705 317.458 125.758C316.871 127.198 316.578 128.545 316.578 129.798C316.578 131.638 317.138 133.251 318.258 134.638C318.924 135.358 319.738 135.905 320.698 136.278C322.058 136.758 323.498 136.998 325.018 136.998Z"
        fill="currentColor"/>
    <path
        d="M395.225 105.278C395.065 105.278 394.891 105.251 394.705 105.198C394.518 105.145 394.358 105.078 394.225 104.998C393.878 104.758 393.651 104.491 393.545 104.198L393.465 104.078L393.305 103.558C393.305 102.945 393.331 102.518 393.385 102.278L393.425 101.958C393.691 101.025 394.011 100.131 394.385 99.2781C394.651 98.5848 394.945 97.8781 395.265 97.1581C395.558 96.4381 395.838 95.7181 396.105 94.9981C396.931 92.9448 397.345 91.2781 397.345 89.9981C397.345 89.7315 397.318 89.4648 397.265 89.1981V88.9181C397.265 88.5715 397.385 88.2381 397.625 87.9181C397.891 87.5981 398.265 87.4381 398.745 87.4381C399.091 87.4381 399.398 87.5581 399.665 87.7981C399.931 88.0115 400.091 88.3048 400.145 88.6781C400.225 89.0515 400.265 89.4248 400.265 89.7981C400.265 91.4781 399.731 93.5715 398.665 96.0781L400.345 93.1581C401.545 91.0781 402.891 89.0915 404.385 87.1981C405.825 85.2248 407.611 83.5448 409.745 82.1581C410.678 81.5715 411.611 81.1715 412.545 80.9581H413.265C413.851 81.0648 414.318 81.3848 414.665 81.9181C414.878 82.3715 414.985 82.8648 414.985 83.3981V83.6781C414.985 84.3448 414.905 84.9848 414.745 85.5981C414.398 87.1715 413.998 88.7048 413.545 90.1981C412.558 93.5048 412.065 95.6915 412.065 96.7581C412.065 96.9448 412.078 97.1448 412.105 97.3581C412.158 97.5448 412.198 97.6648 412.225 97.7181C412.278 97.7448 412.318 97.7581 412.345 97.7581C412.371 97.7581 412.385 97.7715 412.385 97.7981C412.411 97.7981 412.465 97.7981 412.545 97.7981C412.891 97.7981 413.305 97.6648 413.785 97.3981C415.118 96.5448 416.705 95.2915 418.545 93.6381C420.011 92.2515 421.598 90.9581 423.305 89.7581C424.585 88.8248 425.771 88.3581 426.865 88.3581C427.825 88.4648 428.465 88.8648 428.785 89.5581C428.971 90.0915 429.091 90.7315 429.145 91.4781C429.145 92.1981 429.105 92.8915 429.025 93.5581C428.998 94.0648 428.958 94.5848 428.905 95.1181C428.878 95.6515 428.865 96.1981 428.865 96.7581C428.945 98.2248 429.398 98.9581 430.225 98.9581H430.385C430.465 98.9581 430.558 98.9581 430.665 98.9581C430.798 98.9315 430.945 98.9181 431.105 98.9181C431.265 98.9181 431.438 98.8915 431.625 98.8381L431.825 98.7981C432.945 98.5315 434.025 98.1448 435.065 97.6381C437.145 96.5981 439.078 95.3315 440.865 93.8381C441.745 93.0915 442.598 92.3048 443.425 91.4781C444.278 90.6515 445.025 89.7581 445.665 88.7981C445.718 88.7448 445.785 88.7181 445.865 88.7181C445.998 88.7181 446.065 88.7848 446.065 88.9181C446.065 88.9715 446.051 89.0115 446.025 89.0381C445.385 90.0248 444.651 90.9448 443.825 91.7981C441.238 94.5181 438.425 96.6781 435.385 98.2781C434.318 98.8381 433.198 99.2648 432.025 99.5581L431.865 99.5981C431.625 99.6781 431.371 99.7315 431.105 99.7581L430.265 99.7981C429.358 99.7981 428.731 99.4248 428.385 98.6781C428.091 98.0648 427.945 97.4381 427.945 96.7981C427.945 95.5715 427.958 94.7181 427.985 94.2381C428.065 93.4648 428.105 92.7181 428.105 91.9981V91.5181C428.051 90.1581 427.638 89.4781 426.865 89.4781C425.451 89.4781 422.878 91.2781 419.145 94.8781C417.145 96.7448 415.598 98.0115 414.505 98.6781C413.811 99.1048 413.131 99.3181 412.465 99.3181C412.225 99.3181 411.985 99.2781 411.745 99.1981L411.665 99.1581C411.478 99.0515 411.305 98.9181 411.145 98.7581C410.825 98.3581 410.638 97.9848 410.585 97.6381C410.531 97.2648 410.505 96.9315 410.505 96.6381C410.505 96.2648 410.531 95.9181 410.585 95.5981C410.745 94.3715 410.971 93.1848 411.265 92.0381L411.785 90.1581C412.665 87.0381 413.105 84.8381 413.105 83.5581C413.105 83.3448 413.091 83.1981 413.065 83.1181C413.038 83.0381 413.025 82.9848 413.025 82.9581C413.025 82.9315 413.011 82.9048 412.985 82.8781H412.825C412.238 83.0381 411.571 83.3581 410.825 83.8381C409.011 85.0648 407.425 86.6115 406.065 88.4781C404.731 90.3181 403.491 92.2515 402.345 94.2781L399.065 100.478C398.558 101.518 397.958 102.585 397.265 103.678C397.131 103.945 396.905 104.225 396.585 104.518L396.505 104.598C396.318 104.811 396.091 104.971 395.825 105.078C395.771 105.105 395.718 105.131 395.665 105.158C395.611 105.185 395.545 105.198 395.465 105.198C395.358 105.225 395.278 105.251 395.225 105.278Z"
        fill="currentColor"/>
    <path
        d="M446.213 101.278H445.733C444.533 101.198 443.546 100.718 442.773 99.8381C442.186 99.0381 441.893 98.1181 441.893 97.0781V96.6781C441.893 95.6648 442.04 94.7048 442.333 93.7981C442.893 92.0115 443.586 90.3048 444.413 88.6781C444.813 87.8781 445.227 87.0781 445.653 86.2781C446.107 85.4781 446.56 84.6915 447.013 83.9181C447.36 83.4115 447.8 83.1581 448.333 83.1581C448.6 83.1581 448.866 83.2248 449.133 83.3581C449.666 83.7315 449.933 84.1848 449.933 84.7181C449.933 84.9848 449.866 85.2381 449.733 85.4781C449.68 85.5048 449.653 85.5448 449.653 85.5981C447.28 88.7981 445.573 91.7581 444.533 94.4781C444.133 95.5715 443.933 96.5181 443.933 97.3181C443.933 98.8648 444.84 99.6381 446.653 99.6381C447.16 99.6381 447.693 99.5715 448.253 99.4381C449.906 99.0648 451.493 98.4648 453.013 97.6381C456.826 95.6381 461.187 92.6781 466.093 88.7581L466.213 88.7181C466.266 88.7181 466.306 88.7448 466.333 88.7981C466.386 88.8248 466.413 88.8648 466.413 88.9181C466.413 88.9715 466.386 89.0248 466.333 89.0781L464.693 90.4781L462.253 92.4781C460.893 93.5981 459.493 94.6781 458.053 95.7181C456.613 96.7581 455.12 97.7448 453.573 98.6781C452.053 99.6115 450.4 100.358 448.613 100.918C447.866 101.158 447.066 101.278 446.213 101.278ZM449.933 81.6381H449.773C449.08 81.4248 448.733 80.6248 448.733 79.2381C448.733 78.7848 448.76 78.4248 448.813 78.1581C448.92 77.6781 449.173 77.2915 449.573 76.9981C449.92 76.8115 450.266 76.7181 450.613 76.7181C451.253 76.7181 451.747 76.9981 452.093 77.5581C452.307 77.8781 452.413 78.2115 452.413 78.5581C452.413 78.9315 452.24 79.3981 451.893 79.9581C451.253 81.0781 450.6 81.6381 449.933 81.6381Z"
        fill="currentColor"/>
    <path
        d="M460.883 110.198C460.67 110.171 460.496 110.078 460.363 109.918C460.23 109.758 460.163 109.571 460.163 109.358C462.403 95.3048 467.643 78.0248 475.883 57.5181C463.403 58.4781 454.603 59.5715 449.483 60.7981C448.763 61.0648 448.376 61.2248 448.323 61.2781C448.03 61.6781 447.656 61.8781 447.203 61.8781C447.016 61.8781 446.83 61.8381 446.643 61.7581C446.11 61.4648 445.843 61.0648 445.843 60.5581C445.843 60.0781 446.043 59.6648 446.443 59.3181C446.496 59.2915 446.55 59.2648 446.603 59.2381C446.63 59.2115 446.656 59.1848 446.683 59.1581C446.709 59.1315 446.736 59.1048 446.763 59.0781C446.79 59.0515 446.83 59.0381 446.883 59.0381C447.203 58.8248 447.709 58.6115 448.403 58.3981L448.763 58.2781C450.336 57.8781 452.59 57.4915 455.523 57.1181C460.723 56.5315 467.776 55.9848 476.683 55.4781C477.349 53.7981 478.043 52.1315 478.763 50.4781C480.096 47.2781 481.443 44.1181 482.803 40.9981L484.963 36.2781L485.523 35.1181C485.923 34.2115 486.35 33.3315 486.803 32.4781C486.91 32.2381 487.123 31.8781 487.443 31.3981C487.79 30.9181 488.216 30.6781 488.723 30.6781C488.99 30.6781 489.256 30.7581 489.523 30.9181C490.003 31.2648 490.243 31.6915 490.243 32.1981C490.243 32.6248 490.03 33.1315 489.603 33.7181L489.563 33.8781C489.19 34.4915 488.776 35.2648 488.323 36.1981L486.763 39.4381C485.163 42.7181 483.323 46.7448 481.243 51.5181L479.563 55.3181C492.31 54.7315 505.043 54.2915 517.763 53.9981C517.896 53.9981 518.003 54.0515 518.083 54.1581C518.189 54.2381 518.243 54.3448 518.243 54.4781C518.243 54.5848 518.203 54.6915 518.123 54.7981C518.043 54.9048 517.936 54.9581 517.803 54.9581C505.963 55.4915 494.136 56.1848 482.323 57.0381L478.723 57.2781C476.883 61.6515 475.109 66.0381 473.403 70.4381C467.643 85.0781 463.723 98.1181 461.643 109.558C461.616 109.745 461.536 109.891 461.403 109.998C461.243 110.131 461.07 110.198 460.883 110.198Z"
        fill="currentColor"/>
</svg>
